<svg xmlns="http://www.w3.org/2000/svg" width="19.41" height="16.59" viewBox="0 0 19.41 16.59">
  <defs>
    <style>
      .cls-1 {
        fill: #e60e64;
        fill-rule: evenodd;
      }
    </style>
  </defs>
  <path id="Shape_368_copy_2" data-name="Shape 368 copy 2" class="cls-1" d="M1244,1736v16.59h19.42V1736H1244Zm17.7,14.89h-15.99v-11.64h15.99v11.64Zm-8.3-7.67h-2.86v-2.43h2.86v2.43Zm3.44,0h-2.87v-2.43h2.87v2.43Zm3.44,0h-2.87v-2.43h2.87v2.43Zm-10.3,3.06h-2.86v-2.43h2.86v2.43Zm3.44,0h-2.87v-2.43h2.87v2.43Zm3.44,0h-2.87v-2.43h2.87v2.43Zm3.44,0h-2.87v-2.43h2.87v2.43Zm-10.32,3.03h-2.86v-2.43h2.86v2.43Zm3.44,0h-2.87v-2.43h2.87v2.43Zm3.44,0h-2.87v-2.43h2.87v2.43Z" transform="translate(-1244 -1736)"/>
</svg>
