<svg xmlns="http://www.w3.org/2000/svg" width="12.907" height="7.188" viewBox="0 0 12.907 7.188">
  <defs>
    <style>
      .cls-1 {
        fill: #e60e64;
        fill-rule: evenodd;
      }
    </style>
  </defs>
  <path id="Shape_5_copy" data-name="Shape 5 copy" class="cls-1" d="M683.816,27.294l-1.361-1.388a0.421,0.421,0,0,0-.6,0l-4.083,4.163a0.418,0.418,0,0,1-.6,0l-4.084-4.163a0.42,0.42,0,0,0-.6,0l-1.362.189a0.442,0.442,0,0,0,0,.613l4.384,4.468,1.662,1.694a0.417,0.417,0,0,0,.6,0l1.662-1.694,4.383-4.468C683.982,26.538,683.982,27.463,683.816,27.294Z" transform="translate(-671.031 -25.813)"/>
</svg>
