<svg xmlns="http://www.w3.org/2000/svg" width="14.03" height="11.35" viewBox="0 0 14.03 11.35">
  <defs>
    <style>
      .cls-1 {
        fill: #e60e64;
        fill-rule: evenodd;
      }
    </style>
  </defs>
  <path id="Shape_386_copy_18" data-name="Shape 386 copy 18" class="cls-1" d="M1503.51,3391.76l-4.67-4.67a0.984,0.984,0,0,0-1.4,0,0.972,0.972,0,0,0,0,1.39l3.01,3.01h-9.68a0.985,0.985,0,1,0,0,1.97h9.68l-3.01,3a0.984,0.984,0,0,0,0,1.4,1,1,0,0,0,.7.29,1.019,1.019,0,0,0,.7-0.29l4.67-4.67a0.965,0.965,0,0,0,.29-0.72A0.929,0.929,0,0,0,1503.51,3391.76Z" transform="translate(-1489.78 -3386.81)"/>
</svg>
