<svg xmlns="http://www.w3.org/2000/svg" width="18.969" height="19" viewBox="0 0 18.969 19">
  <defs>
    <style>
      .cls-1 {
        fill: #faa41a;
        fill-rule: evenodd;
      }
    </style>
  </defs>
  <path class="cls-1" d="M322,3633.01h-3.586a1.972,1.972,0,0,0-1.414.58l-0.5.5a11.764,11.764,0,0,1-3.586-3.59l0.5-.5a2.019,2.019,0,0,0,.586-1.42v-3.59a2,2,0,0,0-2-2h-4.968a1.981,1.981,0,0,0-1.457.62,2.075,2.075,0,0,0-.539,1.53,18.03,18.03,0,0,0,16.813,16.84l0.136,0.01a1.989,1.989,0,0,0,2.015-2.01v-4.97A2,2,0,0,0,322,3633.01Zm-0.015,6.97v1.01l-0.009-1.01a16.021,16.021,0,0,1-14.944-14.99H312v3.59l-1.579,1.59,0.363,0.66a13.8,13.8,0,0,0,5.393,5.4l0.658,0.36,1.579-1.58H322l0.01,4.97h-0.025ZM318,3631h2a4,4,0,0,0-4-4v2A2,2,0,0,1,318,3631Zm4,0h2a8.012,8.012,0,0,0-8-8.01v2A6.015,6.015,0,0,1,322,3631Z" transform="translate(-305.031 -3623)"/>
</svg>
