<svg xmlns="http://www.w3.org/2000/svg" width="20" height="20" viewBox="0 0 20 20">
  <defs>
    <style>
      .cls-1 {
        fill: #faa41a;
        fill-rule: evenodd;
      }
    </style>
  </defs>
  <path class="cls-1" d="M902,3928a10,10,0,1,0,10,10A10.014,10.014,0,0,0,902,3928Zm6.918,6h-2.306a12.789,12.789,0,0,0-1.052-3.15A8.047,8.047,0,0,1,908.918,3934ZM902,3930c0.843,0,1.949,1.48,2.555,4h-5.11C900.051,3931.48,901.157,3930,902,3930Zm-7.737,10a7.736,7.736,0,0,1,0-4h2.83c-0.06.64-.093,1.31-0.093,2s0.033,1.36.093,2h-2.83Zm0.819,2h2.306a12.789,12.789,0,0,0,1.052,3.15A8.047,8.047,0,0,1,895.082,3942Zm2.306-8h-2.306a8.047,8.047,0,0,1,3.358-3.15A12.789,12.789,0,0,0,897.388,3934ZM902,3946c-0.843,0-1.949-1.48-2.555-4h5.11C903.949,3944.52,902.843,3946,902,3946Zm2.892-6h-5.784a18.573,18.573,0,0,1,0-4h5.784A18.573,18.573,0,0,1,904.892,3940Zm0.668,5.15a12.789,12.789,0,0,0,1.052-3.15h2.306A8.047,8.047,0,0,1,905.56,3945.15Zm1.347-5.15c0.06-.64.093-1.31,0.093-2s-0.033-1.36-.093-2h2.83a7.736,7.736,0,0,1,0,4h-2.83Z" transform="translate(-892 -3928)"/>
</svg>
