<svg xmlns="http://www.w3.org/2000/svg" width="19.38" height="19.375" viewBox="0 0 19.38 19.375">
  <defs>
    <style>
      .cls-1 {
        fill: #bebebe;
        fill-rule: evenodd;
      }
    </style>
  </defs>
  <path class="cls-1" d="M1358.93,71.961h-0.81a8.086,8.086,0,0,1-8.08-8.079V63.074h1.62v0.808a6.464,6.464,0,0,0,6.46,6.463h0.81v1.616Zm-7.27-7.271h-0.81V63.074h0.79a5.5,5.5,0,0,0,.02-0.588V58.814a5.492,5.492,0,0,0-.02-0.588h-3.22a0.806,0.806,0,0,0-.8.808v3.231H1346V59.034a2.427,2.427,0,0,1,2.42-2.424h3.24a1.566,1.566,0,0,1,1.15.429,2.34,2.34,0,0,1,.46,1.787v3.646a2.339,2.339,0,0,1-.46,1.787A1.566,1.566,0,0,1,1351.66,64.689ZM1362.97,76h-3.24V74.384h3.24a0.806,0.806,0,0,0,.8-0.808V70.359a5.474,5.474,0,0,0-.58-0.015h-3.68a5.474,5.474,0,0,0-.58.015v0.794h-1.62V70.345a1.536,1.536,0,0,1,.43-1.152,2.344,2.344,0,0,1,1.79-.465h3.64a2.355,2.355,0,0,1,1.79.465,1.575,1.575,0,0,1,.43,1.152v3.231A2.428,2.428,0,0,1,1362.97,76Zm-0.81,0h-2.43A13.748,13.748,0,0,1,1346,62.265V59.842h1.62v2.423a12.126,12.126,0,0,0,12.11,12.119h2.43V76Zm3.23-10.1h-1.62a7.68,7.68,0,0,0-7.67-7.675V56.61A9.3,9.3,0,0,1,1365.39,65.9Zm-4.04,0h-1.62a3.638,3.638,0,0,0-3.63-3.636V60.65A5.26,5.26,0,0,1,1361.35,65.9Z" transform="translate(-1346 -56.625)"/>
</svg>
