<svg xmlns="http://www.w3.org/2000/svg" width="83.406" height="60.376" viewBox="0 0 83.406 60.376">
  <defs>
    <style>
      .cls-1 {
        fill: #fff;
        fill-rule: evenodd;
      }
    </style>
  </defs>
  <path class="cls-1" d="M652.181,1018.18v-14.49a4.29,4.29,0,0,0-4.217-4.351H633.912c-2.959-4.887-9.064-8-15.807-8s-12.848,3.115-15.807,8H588.245a4.289,4.289,0,0,0-4.216,4.351v14.49c-1.4,1.97-9.984,14.52-7,22.39,1.072,2.82,3.423,4.7,7,5.59v1.21a4.288,4.288,0,0,0,4.216,4.35h59.719a4.289,4.289,0,0,0,4.217-4.35v-1.21c3.579-.89,5.93-2.77,7-5.59C662.165,1032.7,653.584,1020.15,652.181,1018.18Zm-68.152,25.14a6.339,6.339,0,0,1-4.521-3.75c-1.683-4.43,1.675-11.7,4.521-16.47v20.22Zm34.076-49.24c5.113,0,9.767,2.007,12.506,5.259H605.6C608.338,996.087,612.992,994.08,618.105,994.08Zm-22.087,54.9a23.161,23.161,0,0,1,44.174,0H596.018Zm53.5-1.61a1.591,1.591,0,0,1-1.558,1.61h-5.01a25.774,25.774,0,0,0-49.7,0h-5.011a1.591,1.591,0,0,1-1.557-1.61v-30.21a16.8,16.8,0,0,0,14.273,8.16h1.325v0.89a3.686,3.686,0,0,0,3.621,3.74h0.74a3.686,3.686,0,0,0,3.621-3.74v-0.89h15.674v0.89a3.686,3.686,0,0,0,3.62,3.74H630.3a3.686,3.686,0,0,0,3.621-3.74v-0.89h1.326a16.8,16.8,0,0,0,14.272-8.16v30.21Zm-44.577-21.16v-4.16a0.974,0.974,0,0,1,.962-0.99h0.74a0.974,0.974,0,0,1,.962.99v4.16a0.983,0.983,0,0,1-.962,1h-0.74A0.983,0.983,0,0,1,604.945,1026.21Zm23.657,0v-4.16a0.973,0.973,0,0,1,.96-0.99H630.3a0.973,0.973,0,0,1,.961.99v4.16a0.982,0.982,0,0,1-.961,1h-0.741A0.982,0.982,0,0,1,628.6,1026.21Zm20.92-18.54c0,8.22-6.405,14.91-14.272,14.91h-1.326v-0.53a3.677,3.677,0,0,0-3.621-3.73h-0.741a3.677,3.677,0,0,0-3.62,3.73v0.53H610.268v-0.53a3.677,3.677,0,0,0-3.621-3.73h-0.74a3.677,3.677,0,0,0-3.621,3.73v0.53h-1.325c-7.868,0-14.273-6.69-14.273-14.91v-3.98a1.585,1.585,0,0,1,1.557-1.61h59.719a1.585,1.585,0,0,1,1.558,1.61v3.98Zm7.184,31.9a6.352,6.352,0,0,1-4.525,3.75V1023.1C655.031,1027.88,658.384,1035.14,656.706,1039.57Z" transform="translate(-576.406 -991.344)"/>
</svg>
