<svg xmlns="http://www.w3.org/2000/svg" width="73.6" height="63.066" viewBox="0 0 73.6 63.066">
  <defs>
    <style>
      .cls-1 {
        fill: #fff;
        fill-rule: evenodd;
      }
    </style>
  </defs>
  <path class="cls-1" d="M1278.52,1055.17a5.414,5.414,0,0,1-2.21-.47l-0.16-.08-0.15.08a5.461,5.461,0,0,1-2.22.47,5.377,5.377,0,0,1-5.37-5.37v-13.95l-0.13-.12a12.036,12.036,0,0,1-4.14-9.07v-9.35a11.99,11.99,0,0,1,7.4-11.09l0.6-.25-0.52-.4a7.52,7.52,0,1,1,9.06,0l-0.52.4,0.61,0.25a12,12,0,0,1,7.39,11.09v9.35a12.009,12.009,0,0,1-4.14,9.08l-0.13.11v13.95A5.377,5.377,0,0,1,1278.52,1055.17Zm-1.68-2.94a2.866,2.866,0,0,0,1.68.53,2.958,2.958,0,0,0,2.95-2.96v-15.13l0.48-.36a9.553,9.553,0,0,0,3.8-7.65v-9.35a9.6,9.6,0,1,0-19.2,0v9.35a9.7,9.7,0,0,0,3.8,7.65l0.47,0.36v15.13a2.966,2.966,0,0,0,2.96,2.96,2.866,2.866,0,0,0,1.68-.53l0.69-.48Zm-0.69-57.735a5.113,5.113,0,1,0,5.11,5.11A5.112,5.112,0,0,0,1276.15,994.5Zm24.3,60.675a3.907,3.907,0,0,1-1.4-.26l-0.14-.05-0.13.05a3.948,3.948,0,0,1-1.4.26,3.905,3.905,0,0,1-3.9-3.9v-8.83l-0.12-.12a8.255,8.255,0,0,1-2.65-6.03v-6.05a8.2,8.2,0,0,1,5.06-7.57l0.63-.26-0.55-.4a5.3,5.3,0,1,1,6.13,0l-0.55.4,0.63,0.26a8.19,8.19,0,0,1,5.05,7.57v6.05a8.09,8.09,0,0,1-2.64,6.03l-0.12.12v8.83A3.905,3.905,0,0,1,1300.45,1055.17Zm-0.84-2.68a1.319,1.319,0,0,0,.78.25,1.531,1.531,0,0,0,1.54-1.47v-10l0.48-.37a5.717,5.717,0,0,0,2.29-4.61v-6.05a5.785,5.785,0,0,0-11.57,0v6.05a5.85,5.85,0,0,0,2.29,4.62l0.47,0.36v10a1.408,1.408,0,0,0,.5,1.06,1.582,1.582,0,0,0,1.05.4,1.387,1.387,0,0,0,.79-0.24l0.69-.48Zm-0.69-37.66a2.885,2.885,0,1,0,2.87,2.88A2.887,2.887,0,0,0,1298.92,1014.83Zm26.96,40.34a5.334,5.334,0,0,1-2.2-.47l-0.16-.07-0.15.07a5.356,5.356,0,0,1-7.55-4.88v-9.07h-4.16a2.289,2.289,0,0,1-1.97-1.11,2.357,2.357,0,0,1-.09-2.26l2.98-5.79-0.07-.16a12.062,12.062,0,0,1-.93-4.62v-9.3a11.931,11.931,0,0,1,7.34-11.02l0.6-.26-0.52-.39a7.49,7.49,0,1,1,9.06,0l-0.52.39,0.6,0.26a11.931,11.931,0,0,1,7.34,11.02v9.3a12.025,12.025,0,0,1-.93,4.62l-0.07.17,2.97,5.78a2.3,2.3,0,0,1-.1,2.27,2.273,2.273,0,0,1-1.96,1.1h-4.16v9.07A5.356,5.356,0,0,1,1325.88,1055.17Zm-1.66-2.93a2.933,2.933,0,0,0,4.6-2.42v-11.49h6.4l-3.44-6.71,0.27-.54a9.487,9.487,0,0,0,1.02-4.27v-9.3a9.54,9.54,0,1,0-19.08,0v9.3a9.609,9.609,0,0,0,1.01,4.27l0.27,0.54-3.44,6.71h6.41v11.49a2.936,2.936,0,0,0,2.93,2.94,2.806,2.806,0,0,0,1.66-.53l0.7-.48Zm-0.7-57.409a5.08,5.08,0,1,0,5.09,5.076A5.082,5.082,0,0,0,1323.52,994.831Z" transform="translate(-1264.12 -992.094)"/>
</svg>
